<?xml version="1.0" encoding="iso-8859-1"?>
<!-- Generator: Adobe Illustrator 19.0.0, SVG Export Plug-In . SVG Version: 6.00 Build 0)  -->
<svg version="1.1" id="Layer_1" xmlns="http://www.w3.org/2000/svg" xmlns:xlink="http://www.w3.org/1999/xlink" x="0px" y="0px"
	 viewBox="0 0 512 512" style="enable-background:new 0 0 512 512;" xml:space="preserve">
<path style="fill:#424242;" d="M512,40.394c0-13.098-10.617-23.715-23.715-23.715H256l-20.898,322.052L512,317.833V40.394z"/>
<g>
	<path style="fill:#707070;" d="M23.715,16.679C10.617,16.679,0,27.296,0,40.394v277.439l256,20.898V16.679H23.715z"/>
	<polygon style="fill:#707070;" points="326.606,405.24 235.102,384.342 256,479.644 337.385,479.644 	"/>
</g>
<g>
	<polygon style="fill:#B4B4B4;" points="185.394,405.24 174.615,479.644 256,479.644 256,384.342 	"/>
	<path style="fill:#B4B4B4;" d="M235.102,317.833L256,405.241h232.285c13.098,0,23.715-10.617,23.715-23.715v-63.693
		L235.102,317.833L235.102,317.833z"/>
</g>
<path style="fill:#E0E0E0;" d="M0,317.833v63.693c0,13.097,10.617,23.715,23.715,23.715H256v-87.408H0z"/>
<polygon style="fill:#424242;" points="382.119,463.97 256,463.97 235.102,479.644 256,495.317 382.119,495.317 "/>
<rect x="129.881" y="463.974" style="fill:#707070;" width="126.119" height="31.347"/>
<polygon style="fill:#424242;" points="278.271,345.863 256,345.863 245.551,361.537 256,377.21 278.271,377.21 "/>
<rect x="233.733" y="345.859" style="fill:#707070;" width="22.271" height="31.347"/>
<polygon style="fill:#FFBA00;" points="432.424,70.577 344.212,70.577 323.314,167.256 344.212,263.935 432.424,263.935 "/>
<polygon style="fill:#FDE09C;" points="256,70.577 235.102,167.256 256,263.935 344.212,263.935 344.212,70.577 "/>
<polygon style="fill:#FFBA00;" points="256,70.577 167.788,70.577 146.89,167.256 167.788,263.935 256,263.935 "/>
<rect x="79.579" y="70.581" style="fill:#FDE09C;" width="88.21" height="193.358"/>
<g>
	<polygon style="fill:#FF8E00;" points="216.026,101.884 167.788,101.884 157.339,117.557 167.788,133.231 216.026,133.231 	"/>
	<polygon style="fill:#FF8E00;" points="216.026,151.582 167.788,151.582 157.339,167.256 167.788,182.929 216.026,182.929 	"/>
	<polygon style="fill:#FF8E00;" points="216.026,201.281 167.788,201.281 157.339,216.954 167.788,232.628 216.026,232.628 	"/>
</g>
<g>
	<rect x="119.547" y="101.886" style="fill:#FFBA00;" width="48.232" height="31.347"/>
	<rect x="119.547" y="151.581" style="fill:#FFBA00;" width="48.232" height="31.347"/>
	<rect x="119.547" y="201.277" style="fill:#FFBA00;" width="48.232" height="31.347"/>
</g>
<g>
	<polygon style="fill:#FF8E00;" points="392.45,101.884 344.212,101.884 333.763,117.557 344.212,133.231 392.45,133.231 	"/>
	<polygon style="fill:#FF8E00;" points="392.45,151.582 344.212,151.582 333.763,167.256 344.212,182.929 392.45,182.929 	"/>
	<polygon style="fill:#FF8E00;" points="392.45,201.281 344.212,201.281 333.763,216.954 344.212,232.628 392.45,232.628 	"/>
</g>
<g>
	<rect x="295.978" y="101.886" style="fill:#FFBA00;" width="48.232" height="31.347"/>
	<rect x="295.978" y="151.581" style="fill:#FFBA00;" width="48.232" height="31.347"/>
	<rect x="295.978" y="201.277" style="fill:#FFBA00;" width="48.232" height="31.347"/>
</g>
<g>
</g>
<g>
</g>
<g>
</g>
<g>
</g>
<g>
</g>
<g>
</g>
<g>
</g>
<g>
</g>
<g>
</g>
<g>
</g>
<g>
</g>
<g>
</g>
<g>
</g>
<g>
</g>
<g>
</g>
</svg>
