<?xml version="1.0" encoding="utf-8"?>
<!-- Generator: Adobe Illustrator 19.0.0, SVG Export Plug-In . SVG Version: 6.00 Build 0)  -->
<svg version="1.1" id="Layer_1" xmlns="http://www.w3.org/2000/svg" xmlns:xlink="http://www.w3.org/1999/xlink" x="0px" y="0px"
	 viewBox="0 0 300 300" style="enable-background:new 0 0 300 300;" xml:space="preserve">
<style type="text/css">
	.st0{clip-path:url(#XMLID_17_);}
	.st1{opacity:0.1;fill:#104A57;}
	.st2{fill:#424242;}
	.st3{fill:#FFFFFF;}
	.st4{fill:#FF1033;}
	.st5{fill:#FFE4D2;}
	.st6{fill:#333333;}
	.st7{fill:none;stroke:#104A57;stroke-width:1.5787;stroke-linecap:round;stroke-linejoin:round;stroke-miterlimit:10;}
	.st8{fill:#78393B;}
	.st9{fill:#E6A883;}
	.st10{fill:#00B3B3;stroke:#104A57;stroke-width:1.5787;stroke-miterlimit:10;}
	.st11{opacity:0.2;fill:#FFFFFF;}
	.st12{fill:#473435;}
	.st13{fill:#515151;}
	.st14{fill:#FF460E;}
	.st15{fill:none;}
	.st16{fill:#D36944;}
</style>
<g id="XMLID_106_">
	<defs>
		<path id="XMLID_95_" d="M150,300L150,300C67.2,300,0,232.8,0,150v0C0,67.2,67.2,0,150,0h0c82.8,0,150,67.2,150,150v0
			C300,232.8,232.8,300,150,300z"/>
	</defs>
	<clipPath id="XMLID_17_">
		<use xlink:href="#XMLID_95_"  style="overflow:visible;"/>
	</clipPath>
	<g id="XMLID_96_" class="st0">
		<g id="XMLID_196_">
			<ellipse id="XMLID_249_" class="st1" cx="86.9" cy="313" rx="90.6" ry="12.9"/>
			<g id="XMLID_200_">
				<g id="XMLID_201_">
					<path id="XMLID_248_" d="M51.4,255.3c0.1,13,0.4,34.4,1.9,54.1l8.4,1.3c0,0-3.3-54.4,25.8-54.4l-2.9-1H51.4z"/>
					<path id="XMLID_247_" d="M88.8,255.3l-2.9,1c29.2,0,25.8,53.1,25.8,53.1h8.4c1.5-19.7,1.9-41.1,1.9-54.1H88.8z"/>
					<path id="XMLID_244_" class="st2" d="M61.8,310.7c0.1-1.5,0-2.3-1.2-3.1c-1.8-1.3-9.8-2.3-15.9-1.8c-2.7,0.2-4.9,2.1-4.9,4.9
						l0,0c0,2.7,2.2,3.6,4.9,3.6h12.1C56.9,314.3,61.5,314.3,61.8,310.7z"/>
					<path id="XMLID_241_" class="st2" d="M111.9,310.7c-0.1-1.5,0-2.3,1.1-3.1c1.8-1.3,9.8-2.3,15.9-1.8c2.7,0.2,4.9,2.1,4.9,4.9
						l0,0c0,2.7-2.2,3.6-4.9,3.6h-12.1C116.8,314.3,112.2,314.3,111.9,310.7z"/>
					<path id="XMLID_240_" d="M60.9,171.7c0,0.5-5.5,12.3-5.5,12.8l-3.8,71.7h70.6l-8-81.7c0-0.5-1.4-1-1.4-1.5L60.9,171.7z"/>
					<polygon id="XMLID_239_" class="st3" points="68.4,183.6 87.7,225.2 106.9,183.6 					"/>
					<polygon id="XMLID_236_" class="st4" points="89.5,171.3 85.8,171.3 84.1,217.7 87.5,225.2 91.2,217.7 					"/>
					<path id="XMLID_235_" d="M57.1,186.2c0,0-19.8,25.4-5.6,61.4l-7.7,2.6c0,0-20.6-49.2,17.2-78.4L57.1,186.2z"/>
					<circle id="XMLID_234_" class="st5" cx="49" cy="251" r="5.6"/>
					<path id="XMLID_233_" d="M115.2,186.2c0,0,19.8,25.4,5.6,61.4l7.7,2.6c0,0,20.6-49.2-17.2-78.4L115.2,186.2z"/>
					<circle id="XMLID_232_" class="st5" cx="123.3" cy="251" r="5.6"/>
					<g id="XMLID_202_">
						<circle id="XMLID_231_" class="st5" cx="57.1" cy="149.9" r="6.9"/>
						<circle id="XMLID_230_" class="st5" cx="118.2" cy="149.9" r="6.9"/>
						<path id="XMLID_229_" class="st5" d="M117,136.3c-2.7-4.1-4.9-10.3-8-13.5c-2.3-2.4-3.7-3.1-7.5-4.1c-2.6-0.7-5.3-1.2-7.9-1.6
							c-0.8-0.1-1.3-0.2-1.6-0.3c0,0-0.1,0-0.1,0h-13c-1.8,0.5-4.9,1.5-3.6,0.8c-2.8,1.5-2.5,1.1-3.9,2.8
							c-3.3,3.8-6.4,7.6-10.2,10.9c-1.3,1.2-2.7,2.3-4.1,3.4v27c0,16.3,13.2,29.5,29.5,29.5h2.1c16.3,0,29.5-13.2,29.5-29.5V138
							C117.8,137.5,117.4,136.9,117,136.3z"/>
						<path id="XMLID_226_" class="st6" d="M97.9,122.1c0.5-1,2.3,21,20.4,22.4c0,0,8.4-41.2-22.7-44.3c-34.2-3.5-41,21.9-38.4,42.8
							C57.1,143,86.9,143.3,97.9,122.1z"/>
						<line id="XMLID_223_" class="st7" x1="63" y1="147.7" x2="57.1" y2="143"/>
						<line id="XMLID_220_" class="st7" x1="109.7" y1="149.8" x2="117.5" y2="143"/>
						<g id="XMLID_217_">
							<path id="XMLID_63_" class="st8" d="M92,178.8c0,0,1-0.1,2.4-0.2c0.7-0.1,1.5-0.2,2.4-0.3c0.9-0.1,1.8-0.3,2.7-0.5
								c0.5-0.1,0.9-0.2,1.3-0.4c0.4-0.1,0.8-0.3,1.2-0.5c0.4-0.2,0.7-0.4,1.1-0.6c0.3-0.2,0.6-0.4,0.9-0.6c0.2-0.2,0.5-0.5,0.7-0.7
								c0.2-0.2,0.3-0.4,0.5-0.6c0.3-0.3,0.4-0.5,0.4-0.5s-0.1,0.2-0.2,0.6c-0.1,0.2-0.1,0.5-0.3,0.7c-0.2,0.3-0.3,0.6-0.6,0.9
								c-0.3,0.3-0.5,0.6-0.9,0.9c-0.3,0.3-0.7,0.6-1.1,0.8c-0.4,0.2-0.9,0.5-1.3,0.6c-0.5,0.2-0.9,0.4-1.4,0.5
								c-0.5,0.1-1,0.2-1.5,0.3c-0.5,0.1-1,0.1-1.4,0.1c-0.9,0-1.8,0-2.5-0.1C92.9,179.1,92,178.8,92,178.8z"/>
						</g>
						<path id="XMLID_214_" class="st7" d="M79.6,153.1c0,0,5.2-3.6,13.6,0"/>
						<path id="XMLID_213_" class="st9" d="M84.9,154c-4.4,0.6-4.5,11.4-3.7,13c1,2,8.2,1.4,8.7-1.5C90.4,162.5,90.7,153.1,84.9,154
							z"/>
						<path id="XMLID_209_" class="st10" d="M79.6,153.6c0,1.7-1.4,3.2-3.2,3.2H66.1c-1.7,0-3.2-1.4-3.2-3.2v-8.6
							c0-1.7,1.4-3.2,3.2-3.2h10.3c1.7,0,3.2,1.4,3.2,3.2V153.6z"/>
						<path id="XMLID_205_" class="st10" d="M109.8,153.6c0,1.7-1.4,3.2-3.2,3.2H96.3c-1.7,0-3.2-1.4-3.2-3.2v-8.6
							c0-1.7,1.4-3.2,3.2-3.2h10.3c1.7,0,3.2,1.4,3.2,3.2V153.6z"/>
						<polygon id="XMLID_204_" class="st11" points="63.7,150.7 71.9,142.6 75.4,142.6 64,154.2 						"/>
						<polygon id="XMLID_203_" class="st11" points="94,150.7 102.2,142.6 105.7,142.6 94.3,154.2 						"/>
					</g>
				</g>
			</g>
		</g>
		<g id="XMLID_144_">
			<path id="XMLID_193_" class="st1" d="M299,325.2c0,7.1-40.6,12.9-90.6,12.9c-50,0-90.6-5.8-90.6-12.9c0-7.1,40.6-12.9,90.6-12.9
				C258.5,312.3,299,318.1,299,325.2z"/>
			<g id="XMLID_148_">
				<g id="XMLID_149_">
					<path id="XMLID_190_" class="st2" d="M173,267.5c0.1,13,0.4,34.4,1.9,54.1l8.4,1.3c0,0-3.3-54.4,25.8-54.4l-2.9-1H173z"/>
					<path id="XMLID_187_" class="st2" d="M210.4,267.5l-2.9,1c29.2,0,25.8,53.1,25.8,53.1h8.4c1.5-19.7,1.9-41.1,1.9-54.1H210.4z"
						/>
					<path id="XMLID_186_" class="st12" d="M183.4,322.9c0.1-1.5,0-2.3-1.2-3.1c-1.8-1.3-9.8-2.2-15.9-1.8c-2.7,0.2-4.9,2.2-4.9,4.9
						l0,0c0,2.7,2.2,3.6,4.9,3.6h12.1C178.5,326.5,183.1,326.5,183.4,322.9z"/>
					<path id="XMLID_185_" class="st12" d="M233.4,322.9c-0.1-1.5,0-2.3,1.1-3.1c1.8-1.3,9.8-2.2,15.9-1.8c2.7,0.2,4.9,2.2,4.9,4.9
						l0,0c0,2.7-2.2,3.6-4.9,3.6h-12.1C238.4,326.5,233.8,326.5,233.4,322.9z"/>
					<path id="XMLID_182_" class="st13" d="M182.5,183.9c0,0.5-5.5,12.3-5.5,12.8l-3.8,71.7h70.6l-8-81.7c0-0.5-1.4-1-1.4-1.5
						L182.5,183.9z"/>
					<polygon id="XMLID_181_" class="st3" points="190,195.9 209.2,237.5 228.5,195.9 					"/>
					<polygon id="XMLID_178_" class="st14" points="211.1,183.5 207.4,183.5 205.7,229.9 209.1,237.5 212.7,229.9 					"/>
					<path id="XMLID_175_" class="st13" d="M178.7,198.4c0,0-19.8,25.4-5.6,61.4l-7.7,2.6c0,0-20.6-49.2,17.2-78.4L178.7,198.4z"/>
					<circle id="XMLID_174_" class="st5" cx="170.5" cy="263.2" r="5.6"/>
					<path id="XMLID_171_" class="st13" d="M236.7,198.4c0,0,19.8,25.4,5.6,61.4l7.7,2.6c0,0,20.6-49.2-17.2-78.4L236.7,198.4z"/>
					<circle id="XMLID_170_" class="st5" cx="244.9" cy="263.2" r="5.6"/>
					<g id="XMLID_150_">
						<path id="XMLID_169_" class="st5" d="M185.5,162.1c0,3.8-3.1,6.9-6.9,6.9c-3.8,0-6.9-3.1-6.9-6.9c0-3.8,3.1-6.9,6.9-6.9
							C182.5,155.2,185.5,158.3,185.5,162.1z"/>
						<circle id="XMLID_168_" class="st5" cx="239.8" cy="162.1" r="6.9"/>
						<path id="XMLID_167_" class="st5" d="M238.6,148.5c-2.7-4.1-4.9-10.3-8-13.5c-2.2-2.3-3.7-3.1-7.5-4.1
							c-2.6-0.7-5.3-1.2-7.9-1.6c-0.8-0.1-1.3-0.2-1.6-0.3c0,0-0.1,0-0.1,0h-13c-1.8,0.5-4.9,1.5-3.6,0.8c-2.8,1.5-2.5,1.1-3.9,2.8
							c-3.3,3.8-6.4,7.6-10.2,10.9c-1.3,1.2-2.7,2.3-4.1,3.4v27c0,16.3,13.2,29.5,29.5,29.5h2.1c16.3,0,29.5-13.2,29.5-29.5v-23.7
							C239.4,149.7,239,149.1,238.6,148.5z"/>
						<path id="XMLID_164_" class="st14" d="M239.8,156.7c0,0,8.4-41.2-22.7-44.3c-34.2-3.5-41,21.9-38.4,42.8
							c0,0,37.4,4.8,47.6-12.7C230.1,149.6,239.8,156.7,239.8,156.7z"/>
						<g id="XMLID_161_">
							<path id="XMLID_58_" class="st15" d="M200,161.8"/>
						</g>
						<g id="XMLID_158_">
							<path id="XMLID_32_" class="st15" d="M187.4,162.1"/>
						</g>
						<path id="XMLID_157_" class="st9" d="M206.5,161.8c-2,0.3-7.3,18.9-6.5,20.5c1,2,10.6,3,11,0
							C211.4,179.3,208.7,161.4,206.5,161.8z"/>
						<path id="XMLID_156_" class="st2" d="M191.3,162.8c0.6,0,1.2,0.3,1.5,0.7c0.3-0.4,0.6-0.9,0.6-1.4c0-1.2-0.9-2.1-2.1-2.1
							c-1.2,0-2.1,0.9-2.1,2.1c0,0.5,0.2,1,0.6,1.4C190.1,163,190.6,162.8,191.3,162.8z"/>
						<path id="XMLID_155_" class="st2" d="M224.1,162.8c0.6,0,1.2,0.3,1.5,0.7c0.3-0.4,0.6-0.9,0.6-1.4c0-1.2-0.9-2.1-2.1-2.1
							c-1.2,0-2.1,0.9-2.1,2.1c0,0.5,0.2,1,0.6,1.4C223,163,223.5,162.8,224.1,162.8z"/>
						<path id="XMLID_152_" class="st16" d="M208.5,191c1.5,3.2,5.1,4.7,8.4,3.4c3.3-1.3,5-4.9,3.9-8.2L208.5,191z"/>
						<path id="XMLID_151_" class="st14" d="M193,116.3c0,0-20.2,11.3-34.2,0.3c0,0-4.3,40.1,27.2,39.1L193,116.3z"/>
					</g>
				</g>
			</g>
		</g>
		<g id="XMLID_97_">
			<path id="XMLID_141_" class="st1" d="M253.2,367.3c0,8-45.5,14.5-101.7,14.5c-56.2,0-101.7-6.5-101.7-14.5
				c0-8,45.5-14.5,101.7-14.5C207.6,352.8,253.2,359.3,253.2,367.3z"/>
			<g id="XMLID_101_">
				<g id="XMLID_102_">
					<path id="XMLID_138_" class="st14" d="M111.7,302.5c0.1,14.6,0.5,38.6,2.2,60.8l9.5,1.4c0,0-3.7-61,29-61l-3.2-1.2H111.7z"/>
					<path id="XMLID_135_" class="st14" d="M153.7,302.5l-3.2,1.2c32.7,0,29,59.6,29,59.6h9.5c1.7-22.1,2.1-46.2,2.2-60.8H153.7z"/>
					<path id="XMLID_134_" class="st12" d="M123.3,364.7c0.1-1.7-0.1-2.6-1.3-3.5c-2.1-1.4-11-2.5-17.8-2c-3,0.2-5.5,2.4-5.5,5.5
						l0,0c0,3,2.5,4.1,5.5,4.1h13.6C117.8,368.8,123,368.8,123.3,364.7z"/>
					<path id="XMLID_133_" class="st12" d="M179.5,364.7c-0.1-1.7,0-2.6,1.3-3.5c2.1-1.4,11-2.5,17.9-2c3,0.2,5.5,2.4,5.5,5.5l0,0
						c0,3-2.5,4.1-5.5,4.1h-13.6C185.1,368.8,179.9,368.8,179.5,364.7z"/>
					<path id="XMLID_130_" class="st14" d="M122.4,208.7c0,0.6-6.2,13.9-6.2,14.4l-4.3,80.6h79.3l-9-91.8c0-0.6-1.6-1.1-1.6-1.7
						L122.4,208.7z"/>
					<polygon id="XMLID_129_" class="st3" points="130.8,222.1 152.4,268.8 174,222.1 					"/>
					<polygon id="XMLID_126_" class="st2" points="154.4,208.2 150.3,208.2 148.4,260.3 152.2,268.8 156.3,260.3 					"/>
					<path id="XMLID_123_" class="st14" d="M118,224.9c0,0-22.2,28.5-6.3,68.9l-8.6,2.9c0,0-23.2-55.3,19.3-88L118,224.9z"/>
					<circle id="XMLID_122_" class="st5" cx="108.9" cy="297.7" r="6.2"/>
					<path id="XMLID_119_" class="st14" d="M183.2,224.9c0,0,22.2,28.5,6.3,68.9l8.6,2.9c0,0,23.2-55.3-19.3-88L183.2,224.9z"/>
					<circle id="XMLID_118_" class="st5" cx="192.4" cy="297.7" r="6.2"/>
					<g id="XMLID_103_">
						<circle id="XMLID_117_" class="st5" cx="118" cy="184.1" r="7.7"/>
						<circle id="XMLID_116_" class="st5" cx="186.7" cy="184.1" r="7.7"/>
						<path id="XMLID_115_" class="st5" d="M185.3,168.9c-3-4.6-5.5-11.5-9-15.2c-2.5-2.6-4.1-3.5-8.4-4.6c-2.9-0.7-5.9-1.4-8.9-1.9
							c-0.9-0.1-1.4-0.2-1.8-0.3c0,0-0.1,0-0.2,0h-14.5c-2,0.6-5.5,1.7-4,0.9c-3.1,1.7-2.8,1.3-4.4,3.1c-3.7,4.2-7.2,8.6-11.4,12.3
							c-1.5,1.3-3,2.6-4.6,3.8v30.4c0,18.3,14.8,33.2,33.2,33.2h2.3c18.3,0,33.2-14.9,33.2-33.2v-26.6
							C186.2,170.2,185.7,169.6,185.3,168.9z"/>
						<path id="XMLID_114_" d="M163.8,153c0.6-1.1,2.6,23.6,22.9,25.1c0,0,9.4-46.3-25.5-49.8c-38.4-3.9-46,24.5-43.2,48
							C118,176.4,151.5,176.8,163.8,153z"/>
						<g id="XMLID_111_">
							<path id="XMLID_30_" class="st8" d="M127.9,184.1c0,0,0.1-0.3,0.3-0.7c0.2-0.4,0.6-1,1.1-1.6c0.6-0.6,1.3-1.2,2.2-1.7
								c0.5-0.3,1-0.4,1.5-0.6c0.6-0.1,1.1-0.3,1.7-0.3c0.3,0,0.6,0,0.9,0c0.3,0,0.6,0.1,0.9,0.1c0.6,0,1.1,0.3,1.6,0.5
								c0.5,0.2,0.9,0.5,1.3,0.8c0.4,0.2,0.7,0.6,1,0.9c0.3,0.3,0.5,0.6,0.7,0.9c0.2,0.3,0.3,0.5,0.4,0.7c0.2,0.4,0.3,0.7,0.3,0.7
								s-0.3-0.1-0.7-0.2c-0.2-0.1-0.5-0.2-0.7-0.3c-0.3-0.1-0.6-0.2-0.9-0.3c-0.3-0.1-0.7-0.3-1.1-0.3c-0.4-0.1-0.7-0.2-1.1-0.3
								c-0.4,0-0.8-0.2-1.2-0.1c-0.2,0-0.4,0-0.6,0c-0.2,0-0.4,0-0.6,0c-0.4,0-0.8,0.1-1.2,0.1c-0.4,0.1-0.8,0.2-1.2,0.3
								c-0.4,0.1-0.8,0.2-1.2,0.3c-0.4,0.1-0.7,0.3-1.1,0.4c-0.7,0.2-1.3,0.5-1.7,0.6C128.2,184,127.9,184.1,127.9,184.1z"/>
						</g>
						<g id="XMLID_108_">
							<path id="XMLID_27_" class="st8" d="M162,184.1c0,0,0.1-0.3,0.3-0.7c0.2-0.4,0.6-1,1.1-1.6c0.6-0.6,1.3-1.2,2.2-1.7
								c0.5-0.3,1-0.4,1.5-0.6c0.6-0.1,1.1-0.3,1.7-0.3c0.3,0,0.6,0,0.9,0c0.3,0,0.6,0.1,0.9,0.1c0.6,0,1.1,0.3,1.6,0.5
								c0.5,0.2,0.9,0.5,1.3,0.8c0.4,0.2,0.7,0.6,1,0.9c0.3,0.3,0.5,0.6,0.7,0.9c0.2,0.3,0.3,0.5,0.4,0.7c0.2,0.4,0.3,0.7,0.3,0.7
								s-0.3-0.1-0.7-0.2c-0.2-0.1-0.5-0.2-0.7-0.3c-0.3-0.1-0.6-0.2-0.9-0.3c-0.3-0.1-0.7-0.3-1.1-0.3c-0.4-0.1-0.7-0.2-1.1-0.3
								c-0.4,0-0.8-0.2-1.2-0.1c-0.2,0-0.4,0-0.6,0c-0.2,0-0.4,0-0.6,0c-0.4,0-0.8,0.1-1.2,0.1c-0.4,0.1-0.8,0.2-1.2,0.3
								c-0.4,0.1-0.8,0.2-1.2,0.3c-0.4,0.1-0.7,0.3-1.1,0.4c-0.7,0.2-1.3,0.5-1.7,0.6C162.2,184,162,184.1,162,184.1z"/>
						</g>
						<g id="XMLID_105_">
							<path id="XMLID_25_" class="st8" d="M158.6,212.3c0,0,1.2,0.2,2.9,0.4c0.9,0.1,1.9,0.2,2.9,0.2c0.5,0,1.1,0,1.6-0.1
								c0.5-0.1,1.1-0.1,1.6-0.3c0.5-0.1,1.1-0.3,1.5-0.5c0.5-0.2,0.9-0.4,1.4-0.7c0.4-0.3,0.8-0.6,1.1-0.9c0.3-0.3,0.6-0.7,0.9-1
								c0.5-0.7,0.8-1.3,1.1-1.8c0.2-0.5,0.4-0.7,0.4-0.7s0,0.3-0.1,0.8c-0.1,0.5-0.2,1.3-0.6,2.1c-0.2,0.4-0.4,0.9-0.8,1.3
								c-0.3,0.4-0.7,0.9-1.2,1.2c-0.5,0.4-1,0.7-1.6,1c-0.6,0.3-1.2,0.5-1.8,0.6c-2.5,0.6-4.9,0.1-6.6-0.4
								C159.6,213,158.6,212.3,158.6,212.3z"/>
						</g>
						<path id="XMLID_104_" class="st9" d="M149.3,183.8c-2.2,0.3-4.1,18.8-3.2,20.6c1.1,2.2,8.8,0.2,9.3-3.1
							C155.9,198,151.7,183.4,149.3,183.8z"/>
					</g>
				</g>
			</g>
		</g>
	</g>
</g>
</svg>
